<?xml version="1.0" encoding="iso-8859-1"?>
<!-- Uploaded to: SVG Repo, www.svgrepo.com, Generator: SVG Repo Mixer Tools -->
<svg height="800px" width="800px" version="1.1" id="Layer_1" xmlns="http://www.w3.org/2000/svg" xmlns:xlink="http://www.w3.org/1999/xlink" 
	 viewBox="0 0 512 512" xml:space="preserve">
<g transform="translate(1 1)">
	<path style="fill:#E2E3E5;" d="M408.6,492.714h-78.629c-56.686,0-102.4-45.714-102.4-102.4V119.686
		c0-56.686,45.714-102.4,102.4-102.4H408.6c56.686,0,102.4,45.714,102.4,102.4v270.629C511,447,465.286,492.714,408.6,492.714"/>
	<path style="fill:#CCCCCC;" d="M381.171,492.714h-78.629c-56.686,0-102.4-45.714-102.4-102.4V119.686
		c0-56.686,45.714-102.4,102.4-102.4h78.629c56.686,0,102.4,45.714,102.4,102.4v270.629
		C483.571,447,437.857,492.714,381.171,492.714"/>
	<path style="fill:#FFFFFF;" d="M189.171,492.714h-78.629c-56.686,0-102.4-45.714-102.4-102.4V119.686
		c0-56.686,45.714-102.4,102.4-102.4h78.629c56.686,0,102.4,45.714,102.4,102.4v270.629
		C291.571,447,245.857,492.714,189.171,492.714"/>
	<path style="fill:#E2E3E5;" d="M353.743,492.714H137.971c-56.686,0-102.4-45.714-102.4-102.4V119.686
		c0-56.686,45.714-102.4,102.4-102.4h215.771c56.686,0,102.4,45.714,102.4,102.4v270.629
		C456.143,447,410.429,492.714,353.743,492.714"/>
	<polygon style="fill:#E0E0E0;" points="392.143,164.486 191,191 191,124.257 392.143,98.657 	"/>
	<polygon style="fill:#F0F0F0;" points="364.714,164.486 191,191 191,124.257 364.714,98.657 	"/>
	<path style="fill:#E0E0E0;" d="M392.143,327.229c0,29.257-26.514,52.114-58.514,52.114s-58.514-23.771-58.514-52.114
		c0-28.343,26.514-52.114,58.514-52.114C365.629,274.2,392.143,297.971,392.143,327.229"/>
	<path style="fill:#F0F0F0;" d="M364.714,327.229c0,29.257-20.114,52.114-44.8,52.114c-24.686,0-44.8-23.771-44.8-52.114
		c0-28.343,20.114-52.114,44.8-52.114S364.714,297.971,364.714,327.229"/>
	<path style="fill:#E0E0E0;" d="M191,385.743c0,29.257-26.514,52.114-59.429,52.114s-59.429-23.771-59.429-52.114
		c0-29.257,26.514-52.114,59.429-52.114S191,356.486,191,385.743"/>
	<path style="fill:#F0F0F0;" d="M163.571,385.743c0,29.257-20.114,52.114-45.714,52.114s-45.714-23.771-45.714-52.114
		c0-29.257,20.114-52.114,45.714-52.114S163.571,356.486,163.571,385.743"/>
	<g>
		<path style="fill:#B6B6B6;" d="M381.171,501.857H110.543C49.286,501.857-1,451.571-1,390.314V119.686
			C-1,58.429,49.286,8.143,110.543,8.143h270.629c61.257,0,111.543,50.286,111.543,111.543v270.629
			C492.714,451.571,442.429,501.857,381.171,501.857z M110.543,26.429c-51.2,0-93.257,42.057-93.257,93.257v270.629
			c0,51.2,42.057,93.257,93.257,93.257h270.629c51.2,0,93.257-42.057,93.257-93.257V119.686c0-51.2-42.057-93.257-93.257-93.257
			H110.543z"/>
		<path style="fill:#B6B6B6;" d="M191,200.143c-1.829,0-4.571-0.914-6.4-1.829c-1.829-1.829-2.743-4.571-2.743-7.314v-66.743
			c0-4.571,3.657-8.229,8.229-9.143L391.229,88.6c2.743,0,5.486,0.914,7.314,1.829c1.829,2.743,2.743,5.486,2.743,8.229V165.4
			c0,4.571-3.657,8.229-8.229,9.143l-201.143,26.514C191.914,200.143,191,200.143,191,200.143z M200.143,132.486v48.457L383,157.171
			v-48.457L200.143,132.486z M392.143,164.486L392.143,164.486L392.143,164.486z"/>
		<path style="fill:#B6B6B6;" d="M191,394.886c-5.486,0-9.143-3.657-9.143-9.143V163.571c0-5.486,3.657-9.143,9.143-9.143
			s9.143,3.657,9.143,9.143v222.171C200.143,390.314,196.486,394.886,191,394.886z"/>
		<path style="fill:#B6B6B6;" d="M392.143,336.371c-5.486,0-9.143-3.657-9.143-9.143V137.057c0-5.486,3.657-9.143,9.143-9.143
			c5.486,0,9.143,3.657,9.143,9.143v189.257C401.286,331.8,397.629,336.371,392.143,336.371z"/>
		<path style="fill:#B6B6B6;" d="M333.629,388.486c-37.486,0-67.657-27.429-67.657-61.257s30.171-61.257,67.657-61.257
			s67.657,27.429,67.657,61.257S371.114,388.486,333.629,388.486z M333.629,283.343c-27.429,0-49.371,19.2-49.371,42.971
			s21.943,42.971,49.371,42.971c27.429,0,49.371-19.2,49.371-42.971S361.057,283.343,333.629,283.343z"/>
		<path style="fill:#B6B6B6;" d="M131.571,447C94.086,447,63,419.571,63,385.743s31.086-61.257,68.571-61.257
			s68.571,27.429,68.571,61.257S169.057,447,131.571,447z M131.571,342.771c-27.429,0-50.286,19.2-50.286,42.971
			s22.857,42.971,50.286,42.971s50.286-19.2,50.286-42.971S159,342.771,131.571,342.771z"/>
	</g>
</g>
</svg>